<svg xmlns="http://www.w3.org/2000/svg" viewBox="0 0 1000 600" width="1000" height="600"><rect width="1000" height="600" fill="#F5F6F8"></rect><text x="500" y="60" font-size="28" font-weight="800" fill="#191919" text-anchor="middle">창업도약패키지 사업 선정</text><text x="500" y="92" font-size="14" fill="#888" text-anchor="middle">중소벤처기업부 · 어바웃피싱 CPO 직접 작성 / 발표</text><rect x="60" y="160" width="280" height="160" rx="20" fill="white"></rect><rect x="60" y="160" width="280" height="40" rx="20" fill="#3182F6"></rect><rect x="60" y="180" width="280" height="20" fill="#3182F6"></rect><text x="200" y="187" font-size="14" font-weight="800" fill="white" text-anchor="middle">R&amp;D</text><text x="80" y="244" font-size="13" fill="#333" font-weight="600">슈퍼앱 도약 단계 핵심 기술 개발</text><rect x="80" y="270" width="240" height="2" fill="#EEEEEE"></rect><text x="80" y="292" font-size="11" fill="#888">자금 집행 트랙 가동 ✓</text><rect x="370" y="160" width="280" height="160" rx="20" fill="white"></rect><rect x="370" y="160" width="280" height="40" rx="20" fill="#7B61FF"></rect><rect x="370" y="180" width="280" height="20" fill="#7B61FF"></rect><text x="510" y="187" font-size="14" font-weight="800" fill="white" text-anchor="middle">마케팅</text><text x="390" y="244" font-size="13" fill="#333" font-weight="600">시장 검증 + 사용자 확보</text><rect x="390" y="270" width="240" height="2" fill="#EEEEEE"></rect><text x="390" y="292" font-size="11" fill="#888">자금 집행 트랙 가동 ✓</text><rect x="680" y="160" width="280" height="160" rx="20" fill="white"></rect><rect x="680" y="160" width="280" height="40" rx="20" fill="#10B981"></rect><rect x="680" y="180" width="280" height="20" fill="#10B981"></rect><text x="820" y="187" font-size="14" font-weight="800" fill="white" text-anchor="middle">파트너십</text><text x="700" y="244" font-size="13" fill="#333" font-weight="600">외부 협업 네트워크 (TMAP 등)</text><rect x="700" y="270" width="240" height="2" fill="#EEEEEE"></rect><text x="700" y="292" font-size="11" fill="#888">자금 집행 트랙 가동 ✓</text><rect x="60" y="380" width="880" height="120" rx="20" fill="#191919"></rect><text x="500" y="416" font-size="14" fill="#FFB800" text-anchor="middle" font-weight="700">핵심 성과</text><text x="500" y="450" font-size="20" font-weight="800" fill="white" text-anchor="middle">선정 → 사업 자금 확보 → R&amp;D / 마케팅 트랙 동시 가동</text><text x="500" y="478" font-size="12" fill="#888" text-anchor="middle">시장 검증 + 외부 파트너 (TMAP 등) 협업 기반 마련</text></svg>