<svg xmlns="http://www.w3.org/2000/svg" viewBox="0 0 430 780" width="430" height="780">
<rect width="430" height="780" fill="#FFFFFF"></rect>


<rect width="430" height="56" fill="#FFFFFF"></rect>
<text x="20" y="36" font-size="20" font-weight="800" fill="#191919">챔피언십.</text>
<rect x="0" y="55" width="430" height="1" fill="#EEEEEE"></rect>
<rect x="0" y="56" width="430" height="240" fill="#7B61FF"></rect>
<rect x="0" y="56" width="430" height="240" fill="url(#bg2)" opacity="0.3"></rect>
<defs><linearGradient id="bg2" x2="0" y2="1"><stop offset="0" stop-color="#FFFFFF" stop-opacity="0"></stop><stop offset="1" stop-color="#000000" stop-opacity="0.4"></stop></linearGradient></defs>
<rect x="20" y="80" width="60" height="22" rx="4" fill="#3C3C3C"></rect>
<text x="50" y="95" font-size="11" fill="white" text-anchor="middle" font-weight="700">시즌 1</text>
<text x="20" y="146" font-size="28" font-weight="800" fill="white">2026 어바웃피싱</text>
<text x="20" y="176" font-size="28" font-weight="800" fill="white">전국 챔피언십.</text>
<text x="20" y="208" font-size="13" fill="white" opacity="0.85">전국 23개 회차 · 시즌 누적 포인트로 결산</text>
<rect x="20" y="234" width="120" height="40" rx="20" fill="white"></rect>
<text x="80" y="258" font-size="13" fill="#191919" text-anchor="middle" font-weight="800">참가 신청 →</text>
<text x="20" y="332" font-size="17" font-weight="700" fill="#191919">다가오는 회차.</text>
<rect x="20" y="352" width="390" height="64" rx="10" fill="#FFFFFF" stroke="#EEEEEE"></rect>
<text x="36" y="380" font-size="14" font-weight="700" fill="#191919">1회차 · 통영 갈치</text>
<text x="36" y="402" font-size="11" fill="#888">6.12 (금)</text>
<text x="394" y="390" font-size="12" fill="#3182F6" text-anchor="end" font-weight="700">진행중</text>
<rect x="20" y="432" width="390" height="64" rx="10" fill="#FFFFFF" stroke="#EEEEEE"></rect>
<text x="36" y="460" font-size="14" font-weight="700" fill="#191919">2회차 · 거제 광어</text>
<text x="36" y="482" font-size="11" fill="#888">6.26 (금)</text>
<text x="394" y="470" font-size="12" fill="#888" text-anchor="end" font-weight="700">오픈예정</text>
<rect x="20" y="512" width="390" height="64" rx="10" fill="#FFFFFF" stroke="#EEEEEE"></rect>
<text x="36" y="540" font-size="14" font-weight="700" fill="#191919">3회차 · 안흥 쭈꾸미</text>
<text x="36" y="562" font-size="11" fill="#888">7.10 (금)</text>
<text x="394" y="550" font-size="12" fill="#888" text-anchor="end" font-weight="700">오픈예정</text>
</svg>