<svg xmlns="http://www.w3.org/2000/svg" viewBox="0 0 1000 700" width="1000" height="700"><rect width="1000" height="700" fill="#F5F6F8"></rect><text x="40" y="60" font-size="32" font-weight="800" fill="#191919">어바웃피싱 디자인 시스템 v3</text><text x="40" y="92" font-size="14" fill="#888">실제 앱 캡처 100장+ 정밀 분석 · 컬러·타이포·컴포넌트 토큰화</text><rect x="40" y="124" width="600" height="240" rx="16" fill="white"></rect><text x="60" y="154" font-size="16" font-weight="800" fill="#191919">Color Tokens</text><rect x="60" y="180" width="120" height="48" rx="10" fill="#3182F6"></rect><text x="60" y="246" font-size="11" font-weight="700" fill="#191919">CTA Blue</text><text x="60" y="262" font-size="10" fill="#888">#3182F6</text><rect x="200" y="180" width="120" height="48" rx="10" fill="#7B61FF"></rect><text x="200" y="246" font-size="11" font-weight="700" fill="#191919">Accent</text><text x="200" y="262" font-size="10" fill="#888">#7B61FF</text><rect x="340" y="180" width="120" height="48" rx="10" fill="#191919"></rect><text x="340" y="246" font-size="11" font-weight="700" fill="#191919">Ink</text><text x="340" y="262" font-size="10" fill="#888">#191919</text><rect x="480" y="180" width="120" height="48" rx="10" fill="#333333"></rect><text x="480" y="246" font-size="11" font-weight="700" fill="#191919">Body</text><text x="480" y="262" font-size="10" fill="#888">#333333</text><rect x="60" y="260" width="120" height="48" rx="10" fill="#888888"></rect><text x="60" y="326" font-size="11" font-weight="700" fill="#191919">Sub</text><text x="60" y="342" font-size="10" fill="#888">#888888</text><rect x="200" y="260" width="120" height="48" rx="10" fill="#FF5050"></rect><text x="200" y="326" font-size="11" font-weight="700" fill="#191919">Hot</text><text x="200" y="342" font-size="10" fill="#888">#FF5050</text><rect x="340" y="260" width="120" height="48" rx="10" fill="#10B981"></rect><text x="340" y="326" font-size="11" font-weight="700" fill="#191919">Good</text><text x="340" y="342" font-size="10" fill="#888">#10B981</text><rect x="480" y="260" width="120" height="48" rx="10" fill="#FFB800"></rect><text x="480" y="326" font-size="11" font-weight="700" fill="#191919">Gold</text><text x="480" y="342" font-size="10" fill="#888">#FFB800</text><rect x="660" y="124" width="300" height="240" rx="16" fill="white"></rect><text x="680" y="154" font-size="16" font-weight="800" fill="#191919">Typography</text><text x="680" y="186" font-size="20" font-weight="800" fill="#191919">헤더 24/800.</text><text x="680" y="216" font-size="17" font-weight="700" fill="#191919">섹션 타이틀 17/700.</text><text x="680" y="244" font-size="13" fill="#333">본문 13/400 · letter-spacing -0.02em</text><text x="680" y="270" font-size="11" fill="#888">보조 11/400</text><text x="680" y="304" font-size="13" fill="#191919" font-weight="800">85,000<tspan font-size="11" fill="#BCBCBC" text-decoration="line-through"> 1,045,000</tspan></text><rect x="40" y="400" width="920" height="260" rx="16" fill="white"></rect><text x="60" y="430" font-size="16" font-weight="800" fill="#191919">Components</text><rect x="60" y="450" width="120" height="40" rx="8" fill="#3182F6"></rect><text x="120" y="475" font-size="13" fill="white" font-weight="700" text-anchor="middle">Primary CTA</text><rect x="60" y="500" width="120" height="40" rx="8" fill="#FFFFFF" stroke="#191919"></rect><text x="120" y="525" font-size="13" fill="#191919" font-weight="700" text-anchor="middle">Secondary</text><rect x="60" y="550" width="120" height="40" rx="20" fill="#191919"></rect><text x="120" y="575" font-size="13" fill="white" font-weight="700" text-anchor="middle">Pill / Toggle</text><rect x="200" y="450" width="60" height="28" rx="14" fill="#F5F5F5"></rect><text x="230" y="468" font-size="11" fill="#555" text-anchor="middle" font-weight="600">갈치</text><rect x="266" y="450" width="60" height="28" rx="14" fill="#F5F5F5"></rect><text x="296" y="468" font-size="11" fill="#555" text-anchor="middle" font-weight="600">참돔</text><rect x="200" y="500" width="240" height="140" rx="12" fill="#FFFFFF" stroke="#EEEEEE"></rect><rect x="216" y="516" width="48" height="48" rx="8" fill="#F5F5F5"></rect><text x="280" y="540" font-size="13" font-weight="700" fill="#191919">상품 카드</text><text x="280" y="558" font-size="11" fill="#888">카드 padding 16, gap 12</text><text x="216" y="608" font-size="14" font-weight="800" fill="#3182F6">85,000원</text><rect x="460" y="450" width="220" height="120" rx="12" fill="#191919"></rect><text x="476" y="478" font-size="10" fill="#888">My 머니</text><text x="476" y="510" font-size="22" font-weight="800" fill="white">52,300<tspan font-size="13" fill="#FFB800"> M</tspan></text><text x="476" y="534" font-size="10" fill="#888">+8,400 M this month</text><rect x="700" y="450" width="48" height="20" rx="3" fill="#FF5050"></rect><text x="724" y="464" font-size="10" fill="white" text-anchor="middle" font-weight="700">실시간</text><rect x="700" y="478" width="48" height="20" rx="3" fill="#3182F6"></rect><text x="724" y="492" font-size="10" fill="white" text-anchor="middle" font-weight="700">NEW</text><rect x="700" y="506" width="48" height="20" rx="3" fill="#10B981"></rect><text x="724" y="520" font-size="10" fill="white" text-anchor="middle" font-weight="700">쿠폰</text><rect x="700" y="534" width="48" height="20" rx="3" fill="#7B61FF"></rect><text x="724" y="548" font-size="10" fill="white" text-anchor="middle" font-weight="700">대회</text></svg>